<?xml version="1.0" encoding="utf-8"?>
<!-- Generator: Adobe Illustrator 22.1.0, SVG Export Plug-In . SVG Version: 6.00 Build 0)  -->
<svg version="1.1" id="Layer_1" xmlns="http://www.w3.org/2000/svg" xmlns:xlink="http://www.w3.org/1999/xlink" x="0px" y="0px"
	 viewBox="0 0 256 256" style="enable-background:new 0 0 256 256;" xml:space="preserve">
<style type="text/css">
	.st0{fill:#D73735;}
	.st1{fill:#F85252;}
	.st2{fill:#EDAF85;}
	.st3{fill:#F7C09A;}
	.st4{fill:#D8D6D7;}
	.st5{fill:#FFFFFF;}
	.st6{fill:#1C868E;}
	.st7{fill:#40C4DF;}
	.st8{fill:#491352;}
	.st9{fill:#56C1B3;}
	.st10{fill:#7BEFE4;}
</style>
<g>
	<path class="st6" d="M227.09,59.437v189.74c0,2.76-2.23,5-5,5H33.91c-2.77,0-5-2.24-5-5v-239c0-2.76,2.23-5,5-5H173.6
		c1.34,0,2.63,0.53,3.57,1.49l48.49,49.26C226.58,56.867,227.09,58.128,227.09,59.437z"/>
	<path class="st7" d="M227.09,59.437v189.74c0,2.76-2.23,5-5,5H49.12c-2.76,0-5-2.24-5-5v-239c0-2.76,2.24-5,5-5H173.6
		c1.34,0,2.63,0.53,3.57,1.49l48.49,49.26C226.58,56.867,227.09,58.128,227.09,59.437z"/>
	<rect x="28.906" y="91.403" class="st5" width="198.188" height="122.886"/>
	<rect x="28.91" y="91.407" class="st4" width="15.21" height="122.88"/>
	<g>
		<path class="st7" d="M45.253,167.285c-4.604,0-8.209,3.605-8.209,8.208s3.605,8.208,8.209,8.208c4.433,0,8.039-3.682,8.039-8.208
			S49.685,167.285,45.253,167.285z"/>
		<g>
			<path class="st7" d="M101.203,162.983c-2.549,5.567-7.445,8.509-14.16,8.509c-10.24,0-17.119-7.545-17.119-18.773
				c0-11.275,6.88-18.851,17.119-18.851c6.721,0,11.616,2.965,14.154,8.575l0.786,1.738h14.794l-1.548-4.018
				c-4.463-11.587-15-18.504-28.186-18.504c-17.303,0-30.352,13.353-30.352,31.06c0,17.617,13.049,30.903,30.352,30.903
				c13.19,0,23.726-6.856,28.183-18.34l1.562-4.024h-14.796L101.203,162.983z"/>
			<path class="st7" d="M148.273,146.699c-7.399-2.036-10.641-3.326-10.641-7.126c0-1.673,0.508-3.015,1.509-3.991
				c1.31-1.276,3.436-1.952,6.049-1.871c4.848,0.057,7.406,2.824,7.731,5.37l0.33,2.581h13.752l-0.338-3.26
				c-1.055-10.171-9.347-16.743-21.125-16.743c-12.448,0-21.141,7.464-21.141,18.149c0,13.279,10.87,16.182,18.808,18.301
				c7.558,2.018,10.871,3.332,10.871,7.442c0,3.81-3.091,6.176-8.065,6.176c-6.722,0-8.146-4.06-8.397-6.48l-0.274-2.651h-13.309
				l0.052,3.007c0.186,10.655,9.203,18.097,21.928,18.097c13.931,0,21.219-9.289,21.219-18.464
				C167.232,151.918,156.274,148.902,148.273,146.699z"/>
			<path class="st7" d="M199.997,146.699c-7.399-2.036-10.641-3.326-10.641-7.126c0-1.673,0.508-3.015,1.509-3.991
				c1.31-1.276,3.431-1.952,6.049-1.871c4.848,0.057,7.406,2.824,7.731,5.37l0.33,2.581h13.752l-0.338-3.26
				c-1.055-10.171-9.347-16.743-21.125-16.743c-12.448,0-21.141,7.464-21.141,18.149c0,13.279,10.87,16.182,18.808,18.301
				c7.558,2.018,10.871,3.332,10.871,7.442c0,3.81-3.091,6.176-8.065,6.176c-6.722,0-8.146-4.06-8.397-6.48l-0.274-2.651h-13.309
				l0.052,3.007c0.186,10.655,9.203,18.097,21.928,18.097c13.931,0,21.219-9.289,21.219-18.464
				C218.956,151.918,207.998,148.902,199.997,146.699z"/>
		</g>
	</g>
	<g>
		<path class="st8" d="M227.083,52.854L178.592,3.589c-1.308-1.327-3.126-2.089-4.988-2.089H33.906c-3.86,0-7,3.141-7,7
			c0,10.918,0,228.901,0,239c0,3.859,3.14,7,7,7h188.188c3.86,0,7-3.141,7-7c0-8.064,0-181.467,0-189.735
			C229.094,55.917,228.38,54.173,227.083,52.854z M225.094,247.5c0,1.654-1.346,3-3,3H33.906c-1.654,0-3-1.346-3-3v-32.886h194.188
			V247.5z M225.094,210.614H30.906V91.729h194.188V210.614z M225.094,87.729H30.906V8.5c0-1.654,1.346-3,3-3h139.698
			c0.798,0,1.578,0.326,2.138,0.896l48.49,49.265c0.556,0.565,0.862,1.313,0.862,2.104V87.729z"/>
		<path class="st8" d="M45.253,185.697c5.536,0,10.039-4.579,10.039-10.208s-4.503-10.208-10.039-10.208
			c-5.725,0-10.209,4.484-10.209,10.208S39.528,185.697,45.253,185.697z M45.253,169.281c3.33,0,6.039,2.785,6.039,6.208
			s-2.709,6.208-6.039,6.208C37.024,181.697,37.02,169.281,45.253,169.281z"/>
		<path class="st8" d="M117.091,166.002l1.562-4.024c0.508-1.307-0.457-2.724-1.864-2.724h-14.796c-1.577,0-1.921,1.391-2.608,2.893
			c-5.353,11.692-27.461,10.354-27.461-9.431c0-10.236,5.935-16.851,15.12-16.851c5.961,0,10.11,2.489,12.332,7.399
			c1.792,3.96-0.074,2.913,17.402,2.913c0.659,0,1.276-0.325,1.649-0.868c0.373-0.544,0.454-1.235,0.217-1.851l-1.548-4.018
			c-12.007-31.173-62.404-24.614-62.404,13.274C54.692,190.446,105.102,196.902,117.091,166.002z M113.863,142.178h-10.589
			c-7.631-16.876-35.35-13.235-35.35,10.538c0,23.694,27.716,27.245,35.353,10.538h10.59
			c-11.357,29.261-55.175,22.086-55.175-10.538C58.692,120.051,102.469,112.578,113.863,142.178z"/>
		<path class="st8" d="M146.012,169.725c-9.946,0-4.164-9.132-8.671-9.132c-16.673,0-15.366-1.186-15.256,5.042
			c0.465,26.696,47.146,26.985,47.146-0.401c0-14.842-12.567-18.313-20.7-20.553l-0.001,0.009c-7.594-2.106-8.899-3.139-8.899-5.121
			c0-3.036,2.5-3.959,5.535-3.862c3.653,0.043,5.552,1.909,5.771,3.625l0.33,2.581c0.128,0.998,0.978,1.746,1.984,1.746h13.751
			c1.183,0,2.112-1.025,1.989-2.206l-0.338-3.261c-2.692-25.929-46.255-24.229-46.255,1.612c0,23.315,29.679,17.767,29.679,25.743
			C152.078,169.317,147.836,169.725,146.012,169.725z M126.399,139.805c0-20.76,36.108-22.083,38.276-1.2l0.109,1.055h-9.773
			c-1.398-10.905-19.38-10.59-19.38-0.09c0,12.819,29.6,4.833,29.6,25.664c0,21.532-38.753,22.787-39.165-0.641h9.47
			c0.663,6.397,4.588,9.132,10.475,9.132c6.115,0,10.065-3.21,10.065-8.177C156.078,151.963,126.399,160.852,126.399,139.805z"/>
		<path class="st8" d="M197.737,169.725c-3.985,0-6.081-1.533-6.408-4.686c-0.225-2.176-0.077-4.446-2.263-4.446h-13.31
			c-1.113,0-2.02,0.914-2,2.035l0.053,3.007c0.465,26.696,47.146,26.985,47.146-0.401c0-14.842-12.564-18.303-20.697-20.543
			c0,0,0,0,0,0.001c-7.597-2.106-8.903-3.14-8.903-5.122c0-3.047,2.502-3.95,5.535-3.862c3.653,0.043,5.552,1.909,5.771,3.625
			c0.273,2.131,0.178,4.327,2.314,4.327c17.299,0,16.1,1.26,15.403-5.467c-1.169-11.261-10.241-18.537-23.114-18.537
			c-13.625,0-23.141,8.286-23.141,20.149c0,23.315,29.679,17.767,29.679,25.743C203.802,169.317,199.561,169.725,197.737,169.725z
			 M178.124,139.805c0-9.509,7.871-16.149,19.141-16.149c9.928,0,18.091,4.875,19.245,16.004h-9.773
			c-0.698-5.441-4.861-7.893-9.761-7.951c-5.327-0.18-9.62,2.468-9.62,7.861c0,12.833,29.6,4.792,29.6,25.664
			c0,21.532-38.753,22.787-39.165-0.641h9.47c0.663,6.397,4.588,9.132,10.475,9.132c6.115,0,10.065-3.21,10.065-8.177
			C207.802,151.96,178.124,160.856,178.124,139.805z"/>
	</g>
</g>
</svg>
