<?xml version="1.0" encoding="UTF-8" standalone="no"?> <svg width="52" height="54" viewBox="0 0 52 54" fill="none" xmlns="http://www.w3.org/2000/svg">
<path fill-rule="evenodd" clip-rule="evenodd" d="M45.5 15.625V36.75H42.25V15.625H35.75C33.0576 15.625 30.875 13.4424 30.875 10.75V4.25H13C11.2051 4.25 9.75 5.70507 9.75 7.5V36.75H6.5V7.5C6.5 3.91015 9.41015 1 13 1H30.875L45.5 15.625ZM13.8569 39.5125V52.5093H11.2861V46.9393H5.8208V52.5093H3.25V39.5125H5.8208V44.7969H11.2861V39.5125H13.8569ZM21.1751 41.6644V52.5093H18.5948V41.6644H14.91V39.5125H24.8695V41.6644H21.1751ZM28.2458 52.5093V43.8638H28.3696L31.4641 50.8811H33.1398L36.2153 43.8638H36.3391V52.5093H38.6623V39.5125H36.0629L32.3591 47.9485H32.2734L28.5695 39.5125H25.9511V52.5093H28.2458ZM43.5525 50.3194H49.0655V52.5093H40.9817V39.5125H43.5525V50.3194Z" fill="black"/>
<path d="M45.5 36.75V37.25H46V36.75H45.5ZM45.5 15.625H46V15.4179L45.8536 15.2714L45.5 15.625ZM42.25 36.75H41.75V37.25H42.25V36.75ZM42.25 15.625H42.75V15.125H42.25V15.625ZM30.875 4.25H31.375V3.75H30.875V4.25ZM9.75 36.75V37.25H10.25V36.75H9.75ZM6.5 36.75H6V37.25H6.5V36.75ZM30.875 1L31.2286 0.646447L31.0821 0.5H30.875V1ZM13.8569 52.5093V53.0093H14.3569V52.5093H13.8569ZM13.8569 39.5125H14.3569V39.0125H13.8569V39.5125ZM11.2861 52.5093H10.7861V53.0093H11.2861V52.5093ZM11.2861 46.9393H11.7861V46.4393H11.2861V46.9393ZM5.8208 46.9393V46.4393H5.3208V46.9393H5.8208ZM5.8208 52.5093V53.0093H6.3208V52.5093H5.8208ZM3.25 52.5093H2.75V53.0093H3.25V52.5093ZM3.25 39.5125V39.0125H2.75V39.5125H3.25ZM5.8208 39.5125H6.3208V39.0125H5.8208V39.5125ZM5.8208 44.7969H5.3208V45.2969H5.8208V44.7969ZM11.2861 44.7969V45.2969H11.7861V44.7969H11.2861ZM11.2861 39.5125V39.0125H10.7861V39.5125H11.2861ZM21.1751 52.5093V53.0093H21.6751V52.5093H21.1751ZM21.1751 41.6644V41.1644H20.6751V41.6644H21.1751ZM18.5948 52.5093H18.0948V53.0093H18.5948V52.5093ZM18.5948 41.6644H19.0948V41.1644H18.5948V41.6644ZM14.91 41.6644H14.41V42.1644H14.91V41.6644ZM14.91 39.5125V39.0125H14.41V39.5125H14.91ZM24.8695 39.5125H25.3695V39.0125H24.8695V39.5125ZM24.8695 41.6644V42.1644H25.3695V41.6644H24.8695ZM28.2458 43.8638V43.3638H27.7458V43.8638H28.2458ZM28.2458 52.5093V53.0093H28.7458V52.5093H28.2458ZM28.3696 43.8638L28.8271 43.6621L28.6955 43.3638H28.3696V43.8638ZM31.4641 50.8811L31.0066 51.0829L31.1381 51.3811H31.4641V50.8811ZM33.1398 50.8811V51.3811H33.4666L33.5978 51.0819L33.1398 50.8811ZM36.2153 43.8638V43.3638H35.8885L35.7573 43.6631L36.2153 43.8638ZM36.3391 43.8638H36.8391V43.3638H36.3391V43.8638ZM36.3391 52.5093H35.8391V53.0093H36.3391V52.5093ZM38.6623 52.5093V53.0093H39.1623V52.5093H38.6623ZM38.6623 39.5125H39.1623V39.0125H38.6623V39.5125ZM36.0629 39.5125V39.0125H35.7364L35.6051 39.3115L36.0629 39.5125ZM32.3591 47.9485V48.4485H32.6856L32.8169 48.1495L32.3591 47.9485ZM32.2734 47.9485L31.8156 48.1495L31.9468 48.4485H32.2734V47.9485ZM28.5695 39.5125L29.0273 39.3115L28.8961 39.0125H28.5695V39.5125ZM25.9511 39.5125V39.0125H25.4511V39.5125H25.9511ZM25.9511 52.5093H25.4511V53.0093H25.9511V52.5093ZM49.0655 50.3194H49.5655V49.8194H49.0655V50.3194ZM43.5525 50.3194H43.0525V50.8194H43.5525V50.3194ZM49.0655 52.5093V53.0093H49.5655V52.5093H49.0655ZM40.9817 52.5093H40.4817V53.0093H40.9817V52.5093ZM40.9817 39.5125V39.0125H40.4817V39.5125H40.9817ZM43.5525 39.5125H44.0525V39.0125H43.5525V39.5125ZM46 36.75V15.625H45V36.75H46ZM42.25 37.25H45.5V36.25H42.25V37.25ZM41.75 15.625V36.75H42.75V15.625H41.75ZM35.75 16.125H42.25V15.125H35.75V16.125ZM30.375 10.75C30.375 13.7185 32.7815 16.125 35.75 16.125V15.125C33.3338 15.125 31.375 13.1662 31.375 10.75H30.375ZM30.375 4.25V10.75H31.375V4.25H30.375ZM13 4.75H30.875V3.75H13V4.75ZM10.25 7.5C10.25 5.98122 11.4812 4.75 13 4.75V3.75C10.9289 3.75 9.25 5.42893 9.25 7.5H10.25ZM10.25 36.75V7.5H9.25V36.75H10.25ZM6.5 37.25H9.75V36.25H6.5V37.25ZM6 7.5V36.75H7V7.5H6ZM13 0.5C9.13401 0.5 6 3.634 6 7.5H7C7 4.18629 9.68629 1.5 13 1.5V0.5ZM30.875 0.5H13V1.5H30.875V0.5ZM45.8536 15.2714L31.2286 0.646447L30.5214 1.35355L45.1464 15.9786L45.8536 15.2714ZM14.3569 52.5093V39.5125H13.3569V52.5093H14.3569ZM11.2861 53.0093H13.8569V52.0093H11.2861V53.0093ZM10.7861 46.9393V52.5093H11.7861V46.9393H10.7861ZM5.8208 47.4393H11.2861V46.4393H5.8208V47.4393ZM6.3208 52.5093V46.9393H5.3208V52.5093H6.3208ZM3.25 53.0093H5.8208V52.0093H3.25V53.0093ZM2.75 39.5125V52.5093H3.75V39.5125H2.75ZM5.8208 39.0125H3.25V40.0125H5.8208V39.0125ZM6.3208 44.7969V39.5125H5.3208V44.7969H6.3208ZM11.2861 44.2969H5.8208V45.2969H11.2861V44.2969ZM10.7861 39.5125V44.7969H11.7861V39.5125H10.7861ZM13.8569 39.0125H11.2861V40.0125H13.8569V39.0125ZM21.6751 52.5093V41.6644H20.6751V52.5093H21.6751ZM18.5948 53.0093H21.1751V52.0093H18.5948V53.0093ZM18.0948 41.6644V52.5093H19.0948V41.6644H18.0948ZM14.91 42.1644H18.5948V41.1644H14.91V42.1644ZM14.41 39.5125V41.6644H15.41V39.5125H14.41ZM24.8695 39.0125H14.91V40.0125H24.8695V39.0125ZM25.3695 41.6644V39.5125H24.3695V41.6644H25.3695ZM21.1751 42.1644H24.8695V41.1644H21.1751V42.1644ZM27.7458 43.8638V52.5093H28.7458V43.8638H27.7458ZM28.3696 43.3638H28.2458V44.3638H28.3696V43.3638ZM31.9216 50.6794L28.8271 43.6621L27.9121 44.0656L31.0066 51.0829L31.9216 50.6794ZM33.1398 50.3811H31.4641V51.3811H33.1398V50.3811ZM35.7573 43.6631L32.6819 50.6804L33.5978 51.0819L36.6732 44.0645L35.7573 43.6631ZM36.3391 43.3638H36.2153V44.3638H36.3391V43.3638ZM36.8391 52.5093V43.8638H35.8391V52.5093H36.8391ZM38.6623 52.0093H36.3391V53.0093H38.6623V52.0093ZM38.1623 39.5125V52.5093H39.1623V39.5125H38.1623ZM36.0629 40.0125H38.6623V39.0125H36.0629V40.0125ZM32.8169 48.1495L36.5208 39.7135L35.6051 39.3115L31.9013 47.7475L32.8169 48.1495ZM32.2734 48.4485H32.3591V47.4485H32.2734V48.4485ZM28.1117 39.7135L31.8156 48.1495L32.7312 47.7475L29.0273 39.3115L28.1117 39.7135ZM25.9511 40.0125H28.5695V39.0125H25.9511V40.0125ZM26.4511 52.5093V39.5125H25.4511V52.5093H26.4511ZM28.2458 52.0093H25.9511V53.0093H28.2458V52.0093ZM49.0655 49.8194H43.5525V50.8194H49.0655V49.8194ZM49.5655 52.5093V50.3194H48.5655V52.5093H49.5655ZM40.9817 53.0093H49.0655V52.0093H40.9817V53.0093ZM40.4817 39.5125V52.5093H41.4817V39.5125H40.4817ZM43.5525 39.0125H40.9817V40.0125H43.5525V39.0125ZM44.0525 50.3194V39.5125H43.0525V50.3194H44.0525Z" fill="black"/>
</svg>
