<?xml version="1.0" encoding="utf-8"?>
<!-- Generator: Adobe Illustrator 22.1.0, SVG Export Plug-In . SVG Version: 6.00 Build 0)  -->
<svg version="1.1" id="Layer_1" xmlns="http://www.w3.org/2000/svg" xmlns:xlink="http://www.w3.org/1999/xlink" x="0px" y="0px"
	 viewBox="0 0 256 256" style="enable-background:new 0 0 256 256;" xml:space="preserve">
<style type="text/css">
	.st0{fill:#D73735;}
	.st1{fill:#F85252;}
	.st2{fill:#EDAF85;}
	.st3{fill:#F7C09A;}
	.st4{fill:#D8D6D7;}
	.st5{fill:#FFFFFF;}
	.st6{fill:#1C868E;}
	.st7{fill:#40C4DF;}
	.st8{fill:#491352;}
	.st9{fill:#56C1B3;}
	.st10{fill:#7BEFE4;}
</style>
<g>
	<path class="st6" d="M227.09,58.597v189.74c0,2.76-2.23,5-5,5H33.91c-2.77,0-5-2.24-5-5v-239c0-2.76,2.23-5,5-5H173.6
		c1.34,0,2.63,0.53,3.57,1.49l48.49,49.26C226.58,56.027,227.09,57.287,227.09,58.597z"/>
	<path class="st7" d="M227.09,58.597v189.74c0,2.76-2.23,5-5,5H49.12c-2.76,0-5-2.24-5-5v-239c0-2.76,2.24-5,5-5H173.6
		c1.34,0,2.63,0.53,3.57,1.49l48.49,49.26C226.58,56.027,227.09,57.287,227.09,58.597z"/>
	<rect x="28.906" y="90.562" class="st5" width="198.188" height="122.886"/>
	<rect x="28.91" y="90.567" class="st4" width="15.21" height="122.88"/>
	<g>
		<path class="st7" d="M42.208,158.688c-4.604,0-8.209,3.605-8.209,8.208s3.605,8.208,8.209,8.208c4.433,0,8.039-3.682,8.039-8.208
			S46.64,158.688,42.208,158.688z"/>
		<g>
			<polygon class="st7" points="85.954,146.413 67.537,146.413 67.537,127.24 58.008,127.24 58.008,174.74 67.537,174.74 
				67.537,154.939 85.954,154.939 85.954,174.74 95.483,174.74 95.483,127.24 85.954,127.24 			"/>
			<polygon class="st7" points="102.108,135.703 114.076,135.703 114.076,174.74 123.605,174.74 123.605,135.703 135.51,135.703 
				135.51,127.24 102.108,127.24 			"/>
			<polygon class="st7" points="166.292,160.624 151.491,127.553 142.197,127.553 142.197,174.74 151.726,174.74 151.726,149.403 
				163.046,174.74 169.539,174.74 180.796,149.486 180.796,174.74 190.323,174.74 190.323,127.553 181.093,127.553 			"/>
			<polygon class="st7" points="206.712,166.276 206.712,127.24 197.184,127.24 197.184,174.74 222.001,174.74 222.001,166.276 			
				"/>
		</g>
	</g>
	<g>
		<path class="st8" d="M227.083,52.855l-48.49-49.266c-1.308-1.328-3.125-2.089-4.988-2.089H33.906c-3.859,0-7,3.14-7,7
			c0,10.918,0,228.901,0,239c0,3.86,3.141,7,7,7h188.188c3.859,0,7-3.14,7-7c0-8.064,0-181.467,0-189.735
			C229.094,55.916,228.379,54.171,227.083,52.855z M225.094,247.5c0,1.654-1.346,3-3,3H33.906c-1.654,0-3-1.346-3-3v-32.886h194.188
			V247.5z M225.094,210.614H30.906V91.729h194.188V210.614z M225.094,87.729H30.906V8.5c0-1.654,1.346-3,3-3h139.698
			c0.798,0,1.578,0.327,2.138,0.896l48.49,49.266c0.556,0.564,0.861,1.312,0.861,2.104V87.729z"/>
		<path class="st8" d="M42.208,177.104c5.535,0,10.039-4.579,10.039-10.208s-4.504-10.208-10.039-10.208
			c-5.725,0-10.209,4.484-10.209,10.208S36.483,177.104,42.208,177.104z M42.208,160.688c3.33,0,6.039,2.785,6.039,6.208
			s-2.709,6.208-6.039,6.208c-3.481,0-6.209-2.727-6.209-6.208S38.727,160.688,42.208,160.688z"/>
		<path class="st8" d="M58.009,176.74h9.528c1.104,0,2-0.896,2-2v-17.8h14.417v17.8c0,1.104,0.896,2,2,2h9.529c1.104,0,2-0.896,2-2
			v-47.5c0-1.104-0.896-2-2-2h-9.529c-1.104,0-2,0.896-2,2v17.173H69.537V127.24c0-1.104-0.896-2-2-2h-9.528c-1.104,0-2,0.896-2,2
			v47.5C56.009,175.844,56.904,176.74,58.009,176.74z M60.009,129.24h5.528v17.173c0,1.104,0.896,2,2,2h18.417c1.104,0,2-0.896,2-2
			V129.24h5.529v43.5h-5.529v-17.8c0-1.104-0.896-2-2-2H67.537c-1.104,0-2,0.896-2,2v17.8h-5.528V129.24z"/>
		<path class="st8" d="M102.108,137.703h9.968v37.037c0,1.104,0.896,2,2,2h9.528c1.104,0,2-0.896,2-2v-37.037h9.905
			c1.104,0,2-0.896,2-2v-8.463c0-1.104-0.896-2-2-2h-33.401c-1.104,0-2,0.896-2,2v8.463
			C100.108,136.807,101.004,137.703,102.108,137.703z M104.108,129.24h29.401v4.463h-9.905c-1.104,0-2,0.896-2,2v37.037h-5.528
			v-37.037c0-1.104-0.896-2-2-2h-9.968V129.24z"/>
		<path class="st8" d="M142.197,176.74h9.528c1.104,0,2-0.896,2-2v-15.958l7.494,16.773c0.322,0.72,1.037,1.184,1.826,1.184h6.493
			c0.79,0,1.505-0.464,1.827-1.186l7.43-16.669v15.855c0,1.104,0.896,2,2,2h9.527c1.104,0,2-0.896,2-2v-47.187c0-1.104-0.896-2-2-2
			h-9.23c-0.788,0-1.504,0.463-1.825,1.183l-12.976,28.992l-12.976-28.992c-0.321-0.72-1.037-1.183-1.825-1.183h-9.294
			c-1.104,0-2,0.896-2,2v47.187C140.197,175.844,141.093,176.74,142.197,176.74z M144.197,129.553h5.998l14.271,31.888
			c0.322,0.72,1.037,1.183,1.825,1.183s1.503-0.463,1.825-1.183l14.271-31.888h5.935v43.187h-5.527v-23.254
			c0-0.944-0.66-1.76-1.584-1.956c-0.922-0.197-1.857,0.278-2.243,1.142l-10.728,24.069h-3.898l-10.791-24.152
			c-0.386-0.862-1.325-1.339-2.243-1.14c-0.923,0.197-1.583,1.012-1.583,1.956v23.336h-5.528V129.553z"/>
		<path class="st8" d="M197.184,176.74h24.817c1.104,0,2-0.896,2-2v-8.463c0-1.104-0.896-2-2-2h-13.288V127.24c0-1.104-0.896-2-2-2
			h-9.529c-1.104,0-2,0.896-2,2v47.5C195.184,175.844,196.079,176.74,197.184,176.74z M199.184,129.24h5.529v37.037
			c0,1.104,0.896,2,2,2h13.288v4.463h-20.817V129.24z"/>
	</g>
</g>
</svg>
