<?xml version="1.0" encoding="UTF-8" standalone="no"?> <svg width="25" height="24" viewBox="0 0 25 24" fill="none" xmlns="http://www.w3.org/2000/svg">
<g clip-path="url(#clip0_1316_13394)">
<path d="M0.825928 19.5V2.25299C0.825928 1.85517 0.983963 1.47364 1.26527 1.19233C1.54657 0.911026 1.9281 0.752991 2.32593 0.752991H12.9549C13.152 0.753033 13.3472 0.791914 13.5292 0.867411C13.7113 0.942909 13.8767 1.05354 14.0159 1.19299L19.8869 7.06399C20.0262 7.20335 20.1366 7.36877 20.212 7.55082C20.2873 7.73287 20.326 7.92797 20.3259 8.12499V12.753" stroke="black" stroke-width="1.5" stroke-linecap="round" stroke-linejoin="round"/>
<path d="M20.3259 8.25299H14.3259C13.9281 8.25299 13.5466 8.09496 13.2653 7.81365C12.984 7.53235 12.8259 7.15082 12.8259 6.75299V0.752991" stroke="black" stroke-width="1.5" stroke-linecap="round" stroke-linejoin="round"/>
<path d="M5.32593 15.753V21.753C5.32593 22.1508 5.16789 22.5323 4.88659 22.8137C4.60528 23.095 4.22375 23.253 3.82593 23.253H2.32593" stroke="black" stroke-width="1.5" stroke-linecap="round" stroke-linejoin="round"/>
<path d="M8.32593 23.253V17.253C8.32593 16.8552 8.48396 16.4736 8.76527 16.1923C9.04657 15.911 9.4281 15.753 9.82593 15.753C10.2238 15.753 10.6053 15.911 10.8866 16.1923C11.1679 16.4736 11.3259 16.8552 11.3259 17.253V23.253" stroke="black" stroke-width="1.5" stroke-linecap="round" stroke-linejoin="round"/>
<path d="M8.32593 20.253H11.3259" stroke="black" stroke-width="1.5" stroke-linecap="round" stroke-linejoin="round"/>
<path d="M20.3259 23.253V17.253C20.3259 16.8552 20.484 16.4736 20.7653 16.1923C21.0466 15.911 21.4281 15.753 21.8259 15.753C22.2238 15.753 22.6053 15.911 22.8866 16.1923C23.1679 16.4736 23.3259 16.8552 23.3259 17.253V23.253" stroke="black" stroke-width="1.5" stroke-linecap="round" stroke-linejoin="round"/>
<path d="M20.3259 20.253H23.3259" stroke="black" stroke-width="1.5" stroke-linecap="round" stroke-linejoin="round"/>
<path d="M14.3259 15.753V18.3C14.326 20.0632 14.8479 21.7869 15.8259 23.254C16.8039 21.7869 17.3259 20.0632 17.3259 18.3V15.753" stroke="black" stroke-width="1.5" stroke-linecap="round" stroke-linejoin="round"/>
</g>
<defs>
<clipPath id="clip0_1316_13394">
<rect width="24" height="24" fill="white" transform="translate(0.0769043)"/>
</clipPath>
</defs>
</svg>
